<mxfile host="app.diagrams.net" agent="Mozilla/5.0 (Windows NT 10.0; Win64; x64) AppleWebKit/537.36 (KHTML, like Gecko) Chrome/131.0.0.0 Safari/537.36" version="25.0.3">
  <diagram name="Trang-1" id="zlFIegurfB8KLwbwp3jY">
    <mxGraphModel dx="880" dy="468" grid="1" gridSize="10" guides="1" tooltips="1" connect="1" arrows="1" fold="1" page="1" pageScale="1" pageWidth="827" pageHeight="1169" math="0" shadow="0">
      <root>
        <mxCell id="0" />
        <mxCell id="1" parent="0" />
        <mxCell id="AorVL-HcMwqu38Ov-lT1-10" style="edgeStyle=orthogonalEdgeStyle;rounded=0;orthogonalLoop=1;jettySize=auto;html=1;exitX=1;exitY=0.5;exitDx=0;exitDy=0;entryX=0;entryY=0.5;entryDx=0;entryDy=0;" edge="1" parent="1" source="AorVL-HcMwqu38Ov-lT1-1" target="AorVL-HcMwqu38Ov-lT1-2">
          <mxGeometry relative="1" as="geometry" />
        </mxCell>
        <mxCell id="AorVL-HcMwqu38Ov-lT1-1" value="Start" style="rounded=0;whiteSpace=wrap;html=1;" vertex="1" parent="1">
          <mxGeometry x="20" y="190" width="120" height="60" as="geometry" />
        </mxCell>
        <mxCell id="AorVL-HcMwqu38Ov-lT1-11" style="edgeStyle=orthogonalEdgeStyle;rounded=0;orthogonalLoop=1;jettySize=auto;html=1;exitX=1;exitY=0.5;exitDx=0;exitDy=0;entryX=0;entryY=0.5;entryDx=0;entryDy=0;" edge="1" parent="1" source="AorVL-HcMwqu38Ov-lT1-2" target="AorVL-HcMwqu38Ov-lT1-5">
          <mxGeometry relative="1" as="geometry" />
        </mxCell>
        <mxCell id="AorVL-HcMwqu38Ov-lT1-12" style="edgeStyle=orthogonalEdgeStyle;rounded=0;orthogonalLoop=1;jettySize=auto;html=1;exitX=1;exitY=0.5;exitDx=0;exitDy=0;entryX=0;entryY=0.5;entryDx=0;entryDy=0;" edge="1" parent="1" source="AorVL-HcMwqu38Ov-lT1-2" target="AorVL-HcMwqu38Ov-lT1-3">
          <mxGeometry relative="1" as="geometry" />
        </mxCell>
        <mxCell id="AorVL-HcMwqu38Ov-lT1-13" style="edgeStyle=orthogonalEdgeStyle;rounded=0;orthogonalLoop=1;jettySize=auto;html=1;exitX=1;exitY=0.5;exitDx=0;exitDy=0;entryX=0;entryY=0.5;entryDx=0;entryDy=0;" edge="1" parent="1" source="AorVL-HcMwqu38Ov-lT1-2" target="AorVL-HcMwqu38Ov-lT1-4">
          <mxGeometry relative="1" as="geometry" />
        </mxCell>
        <mxCell id="AorVL-HcMwqu38Ov-lT1-14" style="edgeStyle=orthogonalEdgeStyle;rounded=0;orthogonalLoop=1;jettySize=auto;html=1;exitX=1;exitY=0.5;exitDx=0;exitDy=0;entryX=0;entryY=0.5;entryDx=0;entryDy=0;" edge="1" parent="1" source="AorVL-HcMwqu38Ov-lT1-2" target="AorVL-HcMwqu38Ov-lT1-6">
          <mxGeometry relative="1" as="geometry" />
        </mxCell>
        <mxCell id="AorVL-HcMwqu38Ov-lT1-21" style="edgeStyle=orthogonalEdgeStyle;rounded=0;orthogonalLoop=1;jettySize=auto;html=1;exitX=1;exitY=0.5;exitDx=0;exitDy=0;entryX=0;entryY=0.5;entryDx=0;entryDy=0;" edge="1" parent="1" source="AorVL-HcMwqu38Ov-lT1-2" target="AorVL-HcMwqu38Ov-lT1-7">
          <mxGeometry relative="1" as="geometry" />
        </mxCell>
        <mxCell id="AorVL-HcMwqu38Ov-lT1-2" value="D" style="rounded=0;whiteSpace=wrap;html=1;" vertex="1" parent="1">
          <mxGeometry x="190" y="190" width="120" height="60" as="geometry" />
        </mxCell>
        <mxCell id="AorVL-HcMwqu38Ov-lT1-26" style="edgeStyle=orthogonalEdgeStyle;rounded=0;orthogonalLoop=1;jettySize=auto;html=1;exitX=1;exitY=0.5;exitDx=0;exitDy=0;" edge="1" parent="1" source="AorVL-HcMwqu38Ov-lT1-3" target="AorVL-HcMwqu38Ov-lT1-8">
          <mxGeometry relative="1" as="geometry" />
        </mxCell>
        <mxCell id="AorVL-HcMwqu38Ov-lT1-3" value="D&amp;lt;4" style="rhombus;whiteSpace=wrap;html=1;" vertex="1" parent="1">
          <mxGeometry x="360" width="80" height="80" as="geometry" />
        </mxCell>
        <mxCell id="AorVL-HcMwqu38Ov-lT1-27" style="edgeStyle=orthogonalEdgeStyle;rounded=0;orthogonalLoop=1;jettySize=auto;html=1;exitX=1;exitY=0.5;exitDx=0;exitDy=0;entryX=0;entryY=0.5;entryDx=0;entryDy=0;" edge="1" parent="1" source="AorVL-HcMwqu38Ov-lT1-4" target="AorVL-HcMwqu38Ov-lT1-22">
          <mxGeometry relative="1" as="geometry" />
        </mxCell>
        <mxCell id="AorVL-HcMwqu38Ov-lT1-4" value="4&amp;lt;=D&amp;lt;=6" style="rhombus;whiteSpace=wrap;html=1;" vertex="1" parent="1">
          <mxGeometry x="360" y="90" width="80" height="80" as="geometry" />
        </mxCell>
        <mxCell id="AorVL-HcMwqu38Ov-lT1-28" style="edgeStyle=orthogonalEdgeStyle;rounded=0;orthogonalLoop=1;jettySize=auto;html=1;exitX=1;exitY=0.5;exitDx=0;exitDy=0;entryX=0;entryY=0.5;entryDx=0;entryDy=0;" edge="1" parent="1" source="AorVL-HcMwqu38Ov-lT1-5" target="AorVL-HcMwqu38Ov-lT1-23">
          <mxGeometry relative="1" as="geometry" />
        </mxCell>
        <mxCell id="AorVL-HcMwqu38Ov-lT1-5" value="6&amp;lt;D&amp;lt;=8" style="rhombus;whiteSpace=wrap;html=1;" vertex="1" parent="1">
          <mxGeometry x="360" y="180" width="80" height="80" as="geometry" />
        </mxCell>
        <mxCell id="AorVL-HcMwqu38Ov-lT1-29" style="edgeStyle=orthogonalEdgeStyle;rounded=0;orthogonalLoop=1;jettySize=auto;html=1;exitX=1;exitY=0.5;exitDx=0;exitDy=0;" edge="1" parent="1" source="AorVL-HcMwqu38Ov-lT1-6" target="AorVL-HcMwqu38Ov-lT1-24">
          <mxGeometry relative="1" as="geometry" />
        </mxCell>
        <mxCell id="AorVL-HcMwqu38Ov-lT1-6" value="8&amp;lt;D&amp;lt;=9" style="rhombus;whiteSpace=wrap;html=1;" vertex="1" parent="1">
          <mxGeometry x="360" y="270" width="80" height="80" as="geometry" />
        </mxCell>
        <mxCell id="AorVL-HcMwqu38Ov-lT1-30" style="edgeStyle=orthogonalEdgeStyle;rounded=0;orthogonalLoop=1;jettySize=auto;html=1;exitX=1;exitY=0.5;exitDx=0;exitDy=0;entryX=0;entryY=0.5;entryDx=0;entryDy=0;" edge="1" parent="1" source="AorVL-HcMwqu38Ov-lT1-7" target="AorVL-HcMwqu38Ov-lT1-25">
          <mxGeometry relative="1" as="geometry" />
        </mxCell>
        <mxCell id="AorVL-HcMwqu38Ov-lT1-7" value="9&amp;lt;D&amp;lt;=10" style="rhombus;whiteSpace=wrap;html=1;" vertex="1" parent="1">
          <mxGeometry x="360" y="360" width="80" height="80" as="geometry" />
        </mxCell>
        <mxCell id="AorVL-HcMwqu38Ov-lT1-31" style="edgeStyle=orthogonalEdgeStyle;rounded=0;orthogonalLoop=1;jettySize=auto;html=1;exitX=1;exitY=0.5;exitDx=0;exitDy=0;entryX=0;entryY=0.5;entryDx=0;entryDy=0;" edge="1" parent="1" source="AorVL-HcMwqu38Ov-lT1-8" target="AorVL-HcMwqu38Ov-lT1-9">
          <mxGeometry relative="1" as="geometry" />
        </mxCell>
        <mxCell id="AorVL-HcMwqu38Ov-lT1-8" value="Không đạt" style="rounded=0;whiteSpace=wrap;html=1;" vertex="1" parent="1">
          <mxGeometry x="480" y="10" width="120" height="60" as="geometry" />
        </mxCell>
        <mxCell id="AorVL-HcMwqu38Ov-lT1-9" value="End" style="rounded=0;whiteSpace=wrap;html=1;" vertex="1" parent="1">
          <mxGeometry x="660" y="190" width="120" height="60" as="geometry" />
        </mxCell>
        <mxCell id="AorVL-HcMwqu38Ov-lT1-33" style="edgeStyle=orthogonalEdgeStyle;rounded=0;orthogonalLoop=1;jettySize=auto;html=1;exitX=1;exitY=0.5;exitDx=0;exitDy=0;entryX=0;entryY=0.5;entryDx=0;entryDy=0;" edge="1" parent="1" source="AorVL-HcMwqu38Ov-lT1-22" target="AorVL-HcMwqu38Ov-lT1-9">
          <mxGeometry relative="1" as="geometry" />
        </mxCell>
        <mxCell id="AorVL-HcMwqu38Ov-lT1-22" value="Trung bình" style="rounded=0;whiteSpace=wrap;html=1;" vertex="1" parent="1">
          <mxGeometry x="480" y="100" width="120" height="60" as="geometry" />
        </mxCell>
        <mxCell id="AorVL-HcMwqu38Ov-lT1-34" style="edgeStyle=orthogonalEdgeStyle;rounded=0;orthogonalLoop=1;jettySize=auto;html=1;exitX=1;exitY=0.5;exitDx=0;exitDy=0;entryX=0;entryY=0.5;entryDx=0;entryDy=0;" edge="1" parent="1" source="AorVL-HcMwqu38Ov-lT1-23" target="AorVL-HcMwqu38Ov-lT1-9">
          <mxGeometry relative="1" as="geometry" />
        </mxCell>
        <mxCell id="AorVL-HcMwqu38Ov-lT1-23" value="Khá" style="rounded=0;whiteSpace=wrap;html=1;" vertex="1" parent="1">
          <mxGeometry x="480" y="190" width="120" height="60" as="geometry" />
        </mxCell>
        <mxCell id="AorVL-HcMwqu38Ov-lT1-35" style="edgeStyle=orthogonalEdgeStyle;rounded=0;orthogonalLoop=1;jettySize=auto;html=1;exitX=1;exitY=0.5;exitDx=0;exitDy=0;entryX=0;entryY=0.5;entryDx=0;entryDy=0;" edge="1" parent="1" source="AorVL-HcMwqu38Ov-lT1-24" target="AorVL-HcMwqu38Ov-lT1-9">
          <mxGeometry relative="1" as="geometry" />
        </mxCell>
        <mxCell id="AorVL-HcMwqu38Ov-lT1-24" value="Giỏi" style="rounded=0;whiteSpace=wrap;html=1;" vertex="1" parent="1">
          <mxGeometry x="480" y="280" width="120" height="60" as="geometry" />
        </mxCell>
        <mxCell id="AorVL-HcMwqu38Ov-lT1-36" style="edgeStyle=orthogonalEdgeStyle;rounded=0;orthogonalLoop=1;jettySize=auto;html=1;exitX=1;exitY=0.5;exitDx=0;exitDy=0;entryX=0;entryY=0.5;entryDx=0;entryDy=0;" edge="1" parent="1" source="AorVL-HcMwqu38Ov-lT1-25" target="AorVL-HcMwqu38Ov-lT1-9">
          <mxGeometry relative="1" as="geometry" />
        </mxCell>
        <mxCell id="AorVL-HcMwqu38Ov-lT1-25" value="Xuất sắc" style="rounded=0;whiteSpace=wrap;html=1;" vertex="1" parent="1">
          <mxGeometry x="480" y="370" width="120" height="60" as="geometry" />
        </mxCell>
      </root>
    </mxGraphModel>
  </diagram>
</mxfile>
